<?xml version="1.0" standalone="no"?>
<!DOCTYPE svg PUBLIC "-//W3C//DTD SVG 20010904//EN"
 "http://www.w3.org/TR/2001/REC-SVG-20010904/DTD/svg10.dtd">
<svg version="1.0" xmlns="http://www.w3.org/2000/svg"
 width="2000.000000pt" height="2000.000000pt" viewBox="0 0 2000.000000 2000.000000"
 preserveAspectRatio="xMidYMid meet">
  <defs>
    <linearGradient id="blueIndigoGradient" x1="0%" y1="0%" x2="100%" y2="100%">
      <stop offset="0%" stop-color="#4cb1e6" />
      <stop offset="100%" stop-color="#4e75f5" />
    </linearGradient>
  </defs>
  <g transform="translate(0.000000,2000.000000) scale(0.100000,-0.100000)"
     fill="url(#blueIndigoGradient)" stroke="none">
<path d="M5740 16785 c-75 -6 -142 -15 -150 -21 -8 -5 -58 -12 -110 -15 -102
-7 -240 -31 -305 -53 -22 -8 -87 -26 -145 -41 -58 -16 -116 -33 -130 -40 -45
-22 -100 -45 -109 -45 -5 0 -26 -7 -46 -16 -26 -10 -34 -18 -26 -23 8 -5 -8
-11 -38 -15 -27 -4 -56 -12 -63 -19 -7 -7 -26 -18 -41 -25 -15 -6 -25 -17 -22
-22 7 -11 0 -14 -49 -25 -16 -3 -42 -20 -59 -36 -17 -18 -44 -32 -61 -35 -21
-2 -43 -17 -67 -44 -20 -22 -41 -40 -47 -40 -5 0 -27 -16 -48 -35 -22 -19 -48
-38 -59 -41 -10 -4 -36 -24 -58 -45 -21 -22 -44 -39 -52 -39 -8 0 -15 -7 -15
-15 0 -8 -5 -15 -10 -15 -14 0 -220 -209 -220 -224 0 -6 -8 -19 -17 -28 -35
-32 -63 -66 -63 -76 0 -6 -12 -20 -26 -31 -14 -11 -33 -35 -43 -53 -22 -44
-61 -88 -78 -88 -8 0 -13 -12 -13 -30 0 -16 -6 -33 -14 -37 -22 -12 -66 -81
-66 -103 0 -11 -11 -29 -24 -42 -13 -13 -34 -52 -47 -88 -12 -36 -28 -72 -35
-80 -6 -8 -22 -46 -35 -85 -12 -38 -33 -92 -46 -120 -23 -50 -37 -103 -53
-204 -5 -30 -15 -68 -23 -85 -25 -52 -36 -118 -31 -186 3 -40 1 -58 -4 -46 -8
18 -9 18 -15 2 -4 -10 -7 -57 -7 -104 0 -48 -8 -121 -18 -162 -16 -71 -17
-306 -17 -4170 0 -3866 1 -4099 18 -4167 9 -40 17 -110 17 -157 0 -86 6 -120
20 -111 10 6 19 -51 10 -64 -10 -17 11 -154 31 -197 10 -23 19 -53 19 -67 0
-35 10 -58 23 -50 5 3 7 2 4 -4 -10 -17 11 -123 33 -165 11 -21 20 -49 20 -61
1 -12 9 -40 20 -62 11 -22 19 -50 20 -62 0 -13 5 -23 10 -23 6 0 20 -21 30
-47 11 -27 24 -56 30 -65 5 -10 10 -26 10 -36 0 -10 11 -29 25 -42 14 -13 25
-29 25 -37 0 -7 5 -13 11 -13 6 0 8 -8 5 -18 -4 -12 5 -30 24 -52 17 -19 33
-44 36 -56 3 -13 13 -25 21 -28 8 -4 13 -13 10 -20 -3 -8 1 -20 9 -26 8 -7 14
-9 14 -4 1 14 24 -29 25 -46 1 -16 27 -51 58 -79 9 -8 17 -21 17 -28 0 -7 18
-32 40 -55 65 -69 75 -81 101 -118 42 -62 70 -89 87 -83 10 4 13 2 8 -5 -4 -6
3 -16 16 -23 12 -7 31 -23 42 -37 10 -13 25 -29 33 -36 8 -6 31 -28 51 -48 20
-20 49 -40 65 -43 15 -4 27 -13 27 -19 0 -13 53 -56 68 -56 5 0 17 -9 28 -21
10 -12 37 -30 59 -41 22 -11 49 -28 60 -37 29 -26 94 -61 111 -61 8 0 24 -11
36 -25 12 -14 30 -25 39 -25 10 0 20 -4 23 -9 4 -5 24 -12 46 -16 24 -4 44
-14 50 -26 6 -11 34 -25 68 -35 31 -9 73 -25 92 -36 47 -27 121 -49 143 -42 9
3 17 1 17 -4 0 -6 23 -15 51 -21 28 -6 59 -16 70 -22 11 -5 54 -16 97 -24 42
-7 100 -18 127 -24 211 -41 279 -48 610 -57 130 -4 233 -11 236 -17 4 -5 9 -4
12 4 4 12 7 11 16 -1 9 -13 418 -15 3568 -16 1957 -1 3614 3 3683 7 69 5 276
13 460 18 379 11 425 14 494 36 27 8 68 15 92 15 23 0 55 5 71 12 29 12 36 13
118 24 27 3 66 14 87 25 20 10 51 19 69 19 17 0 42 9 56 20 18 14 41 20 73 20
32 0 55 6 73 20 14 11 32 20 40 20 9 0 22 6 29 14 8 7 35 16 61 20 29 5 47 12
47 21 0 13 21 25 46 25 21 0 107 39 119 54 6 7 40 26 76 44 37 17 69 38 73 47
3 8 14 15 24 15 11 0 31 9 45 20 14 11 30 20 36 20 5 0 14 6 18 14 4 7 23 21
41 30 17 9 32 20 32 24 0 5 20 21 45 36 25 16 45 32 45 35 0 3 17 17 38 30 40
27 362 347 362 361 0 5 16 26 35 47 19 21 35 43 35 49 0 6 11 21 25 34 14 13
25 29 25 37 0 7 4 13 9 13 5 0 15 16 21 35 6 19 18 38 26 43 17 10 54 80 54
104 0 9 6 21 14 25 14 9 66 112 66 132 0 7 9 24 20 38 11 14 20 33 20 43 0 9
14 50 31 91 40 95 89 244 89 270 0 11 7 33 15 49 8 15 19 66 24 112 6 45 17
106 25 133 9 28 16 81 16 118 0 37 6 82 13 100 8 18 15 65 15 105 1 40 4 77 7
81 8 14 13 7735 5 8072 -5 226 -11 322 -20 340 -7 13 -17 64 -21 114 -10 121
-43 296 -61 326 -9 13 -18 47 -21 75 -7 59 -30 141 -58 200 -10 23 -19 47 -19
53 0 22 -43 116 -67 144 -13 16 -23 38 -23 50 0 38 -32 108 -47 103 -15 -6
-32 29 -30 60 1 11 -4 18 -11 16 -7 -1 -12 3 -11 10 5 23 -12 58 -32 68 -10 6
-19 18 -19 28 -1 24 -47 97 -62 97 -7 0 -14 14 -16 30 -2 19 -19 45 -43 70
-62 63 -69 71 -69 82 0 18 -261 280 -325 326 -52 37 -96 73 -186 151 -10 8
-39 27 -65 42 -27 15 -63 38 -79 50 -40 30 -116 62 -135 57 -13 -4 -13 -3 -1
5 11 8 4 15 -30 33 -64 34 -107 47 -132 43 -20 -4 -20 -4 -2 4 19 8 18 10 -10
24 -62 32 -157 60 -164 50 -4 -7 -12 -8 -21 -2 -12 8 -11 10 4 10 53 0 -16 26
-179 67 -33 8 -64 18 -70 22 -5 5 -48 14 -95 21 -47 6 -95 16 -108 21 -13 5
-40 9 -60 9 -21 0 -64 7 -97 15 -32 9 -115 20 -184 25 -190 15 -8386 10 -8561
-5z m5981 -1984 c56 -13 174 -95 189 -131 19 -46 7 -148 -26 -212 -15 -29 -37
-82 -50 -118 -26 -76 -99 -266 -114 -295 -5 -11 -19 -47 -31 -80 -12 -33 -34
-87 -49 -120 -16 -33 -32 -73 -36 -90 -4 -16 -19 -57 -34 -90 -15 -33 -36 -85
-45 -115 -10 -30 -24 -65 -32 -76 -8 -12 -27 -62 -44 -110 -17 -49 -36 -98
-43 -109 -7 -11 -21 -45 -31 -75 -10 -30 -28 -75 -40 -100 -13 -25 -32 -74
-43 -110 -11 -36 -29 -81 -40 -100 -11 -19 -30 -66 -42 -104 -13 -39 -31 -84
-41 -100 -9 -17 -25 -58 -34 -91 -9 -33 -30 -87 -45 -120 -15 -33 -36 -85 -46
-115 -10 -30 -26 -68 -35 -85 -10 -16 -25 -59 -34 -95 -9 -36 -25 -78 -36 -93
-11 -15 -27 -54 -35 -85 -8 -31 -28 -84 -44 -117 -16 -33 -34 -80 -40 -105 -7
-25 -23 -67 -37 -95 -14 -27 -31 -74 -39 -103 -8 -29 -24 -72 -36 -95 -24 -48
-58 -168 -58 -209 0 -31 19 -44 95 -64 40 -11 236 -14 1025 -14 736 1 983 -2
1010 -11 64 -23 128 -70 146 -108 24 -51 22 -174 -4 -233 -11 -23 -103 -155
-206 -293 -164 -220 -413 -557 -471 -637 -20 -28 -154 -210 -304 -412 -295
-400 -611 -829 -918 -1248 -117 -158 -132 -179 -246 -332 -37 -50 -86 -116
-107 -146 -22 -30 -91 -123 -153 -206 -198 -268 -350 -474 -437 -595 -110
-152 -191 -263 -310 -424 -167 -225 -320 -435 -475 -650 -212 -295 -256 -349
-322 -393 -95 -63 -112 -67 -268 -65 -77 0 -151 6 -165 11 -14 5 -50 31 -82
56 -64 53 -88 101 -88 176 0 59 25 180 45 219 8 16 30 73 49 127 19 55 53 151
76 214 23 63 57 158 75 210 19 52 55 151 81 220 77 208 125 340 165 450 20 58
54 150 74 205 21 55 57 156 82 225 24 69 60 168 80 220 19 52 52 142 73 200
21 58 57 157 80 220 23 63 55 151 70 195 15 44 37 100 49 125 12 25 31 77 41
115 10 39 27 86 38 105 12 19 26 58 33 85 6 28 25 78 40 112 16 34 34 86 40
115 6 29 24 79 40 110 16 32 29 63 29 71 0 15 -77 92 -101 100 -10 3 -481 -1
-1048 -9 l-1032 -15 -82 22 c-66 18 -89 29 -118 59 -79 82 -89 169 -31 279 31
60 195 309 385 586 200 290 241 351 336 490 52 77 135 199 183 270 360 534
601 890 709 1048 52 76 114 169 139 207 25 38 88 131 140 207 110 161 213 313
326 479 44 65 125 184 179 264 55 80 140 205 190 279 147 218 318 469 488 716
45 67 118 175 162 240 164 244 192 275 286 322 62 31 88 38 164 43 135 10 775
11 816 1z"/>
</g>
</svg>
